<?xml version="1.0"?><svg width="1000" height="1000" xmlns="http://www.w3.org/2000/svg">
 <title>Large_Man_woman_bathroom_sign</title>

 <g>
  <title>Layer 1</title>
  <g id="svg_1">
   <path id="svg_2" fill="#231F20" d="m865.183533,988.326599c64.136597,0 116.229919,-51.90448 116.229919,-116.041016l0,-740.098755c0,-64.199661 -52.08551,-116.230029 -116.229919,-116.230029l-740.035774,0c-64.199623,0 -116.285141,52.02251 -116.285141,116.230029l0,740.098755c0,64.136536 52.085518,116.041016 116.285141,116.041016l740.035774,0z"/>
   <path id="svg_3" fill="#FFFFFF" d="m125.147758,35.509502c-53.258308,0 -96.551352,43.474087 -96.551352,96.669453l0,740.098755c0,53.006348 43.293043,96.244324 96.551352,96.244324l740.043587,0c53.195313,0 96.425476,-43.22998 96.425476,-96.244324l0,-740.090881c0,-53.195366 -43.230164,-96.669472 -96.425476,-96.669472l-740.043587,0l0,-0.007854z"/>
   <rect id="svg_4" fill="#231F20" height="648.962869" width="51.471505" y="168.899337" x="474.688018"/>
   <path id="svg_5" fill="#231F20" d="m290.692566,287.648254c36.901398,0 63.341644,30.375977 68.875336,46.921753l45.197876,148.754974c9.036469,31.855804 -31.611786,45.134979 -41.325165,14.019073l-40.648224,-136.459747l-23.43338,0l68.135437,242.535553l-65.002594,0l0,189.285156c0,32.288696 -48.519684,32.099792 -48.519684,0l0,-190.450073l-24.661301,0l0,190.087952c0,32.650818 -48.763733,32.650818 -48.763733,0l0,-188.915161l-65.120628,0l67.458488,-242.535492l-22.386459,0l-40.774216,136.829651c-9.595314,29.761993 -50.61351,17.710785 -41.262207,-14.389038l45.197968,-148.754944c4.856689,-16.907898 26.259216,-46.921783 63.341629,-46.921783l103.690857,0l0,-0.007874z"/>
   <path id="svg_6" fill="#231F20" d="m241.621857,276.517975c29.085022,0 52.699402,-23.61438 52.699402,-52.644318c0,-29.211014 -23.61438,-52.825424 -52.699402,-52.825424c-29.148056,0 -52.699493,23.61441 -52.699493,52.825424c-0.007858,29.029938 23.551437,52.644318 52.699493,52.644318z"/>
   <path id="svg_7" fill="#231F20" d="m753.692078,275.589172c29.210938,0 52.825317,-23.488464 52.825317,-52.699463c0,-29.029953 -23.61438,-52.644348 -52.825317,-52.644348c-29.030029,0 -52.644348,23.614395 -52.644348,52.644348c0.007874,29.210999 23.622253,52.699463 52.644348,52.699463z"/>
   <path id="svg_8" fill="#231F20" d="m682.423828,786.746277c0,16.356934 13.035156,29.580933 29.392029,29.580933c16.294006,0 29.580933,-13.223999 29.580933,-29.580933l0,-247.888123l24.77948,0l0,247.888123c0,16.356934 13.286987,29.580933 29.580994,29.580933c16.356812,0 29.454956,-13.223999 29.454956,-29.580933l0.18103,-427.396881l24.598389,0l0,157.555267c0,31.729858 41.262207,31.729858 41.262207,0l0,-160.995087c0,-34.988647 -27.243225,-69.182312 -68.198425,-69.182312l-139.718506,-0.18103c-37.452454,0 -67.458435,30.501953 -67.458435,68.387268l0,161.978973c0,31.359924 41.506226,31.359924 41.506226,0l0,-157.56308l25.031311,0l0,427.396881l0.007813,0z"/>
  </g>
 </g>
</svg>